<mxfile host="app.diagrams.net" modified="2021-12-08T02:23:57.338Z" agent="5.0 (Windows NT 10.0; Win64; x64) AppleWebKit/537.36 (KHTML, like Gecko) Chrome/96.0.4664.45 Safari/537.36" etag="e9HoDq_s4m2l2Y7HgOrs" version="15.8.7" type="github">
  <diagram id="R59FIz4Hy2KmhGvVLzks" name="第 1 页">
    <mxGraphModel dx="2249" dy="762" grid="1" gridSize="10" guides="1" tooltips="1" connect="1" arrows="1" fold="1" page="1" pageScale="1" pageWidth="827" pageHeight="1169" math="0" shadow="0">
      <root>
        <mxCell id="0" />
        <mxCell id="1" parent="0" />
        <mxCell id="O7JlTW3U-JiWmMRfGXyI-51" value="" style="rounded=0;whiteSpace=wrap;html=1;sketch=1;shadow=0;glass=0;dashed=1;" vertex="1" parent="1">
          <mxGeometry x="20" y="800" width="300" height="360" as="geometry" />
        </mxCell>
        <mxCell id="O7JlTW3U-JiWmMRfGXyI-8" style="edgeStyle=orthogonalEdgeStyle;curved=1;rounded=1;sketch=1;orthogonalLoop=1;jettySize=auto;html=1;" edge="1" parent="1" source="O7JlTW3U-JiWmMRfGXyI-5" target="O7JlTW3U-JiWmMRfGXyI-6">
          <mxGeometry relative="1" as="geometry" />
        </mxCell>
        <mxCell id="O7JlTW3U-JiWmMRfGXyI-16" value="单条" style="edgeLabel;html=1;align=center;verticalAlign=middle;resizable=0;points=[];" vertex="1" connectable="0" parent="O7JlTW3U-JiWmMRfGXyI-8">
          <mxGeometry x="-0.1673" y="-4" relative="1" as="geometry">
            <mxPoint as="offset" />
          </mxGeometry>
        </mxCell>
        <mxCell id="O7JlTW3U-JiWmMRfGXyI-18" style="edgeStyle=orthogonalEdgeStyle;curved=1;rounded=1;sketch=1;orthogonalLoop=1;jettySize=auto;html=1;exitX=0.5;exitY=1;exitDx=0;exitDy=0;" edge="1" parent="1" source="O7JlTW3U-JiWmMRfGXyI-5" target="O7JlTW3U-JiWmMRfGXyI-17">
          <mxGeometry relative="1" as="geometry" />
        </mxCell>
        <mxCell id="O7JlTW3U-JiWmMRfGXyI-27" value="时间范围查数" style="edgeLabel;html=1;align=center;verticalAlign=middle;resizable=0;points=[];" vertex="1" connectable="0" parent="O7JlTW3U-JiWmMRfGXyI-18">
          <mxGeometry x="0.1351" y="-2" relative="1" as="geometry">
            <mxPoint as="offset" />
          </mxGeometry>
        </mxCell>
        <mxCell id="O7JlTW3U-JiWmMRfGXyI-5" value="&lt;div&gt;OpenAccountDataCleanFetchJob&lt;/div&gt;&lt;div&gt;取数定时任务&lt;/div&gt;" style="rounded=1;whiteSpace=wrap;html=1;sketch=1;" vertex="1" parent="1">
          <mxGeometry x="100" y="60" width="190" height="50" as="geometry" />
        </mxCell>
        <mxCell id="O7JlTW3U-JiWmMRfGXyI-9" style="edgeStyle=orthogonalEdgeStyle;curved=1;rounded=1;sketch=1;orthogonalLoop=1;jettySize=auto;html=1;exitX=0.5;exitY=1;exitDx=0;exitDy=0;entryX=0.5;entryY=0;entryDx=0;entryDy=0;" edge="1" parent="1" source="O7JlTW3U-JiWmMRfGXyI-6" target="O7JlTW3U-JiWmMRfGXyI-7">
          <mxGeometry relative="1" as="geometry" />
        </mxCell>
        <mxCell id="O7JlTW3U-JiWmMRfGXyI-6" value="根据bizNo未查询单条开户记录&lt;br&gt;【t_application_order】" style="rounded=1;whiteSpace=wrap;html=1;sketch=1;" vertex="1" parent="1">
          <mxGeometry x="-20" y="200" width="120" height="60" as="geometry" />
        </mxCell>
        <mxCell id="O7JlTW3U-JiWmMRfGXyI-15" style="edgeStyle=orthogonalEdgeStyle;curved=1;rounded=1;sketch=1;orthogonalLoop=1;jettySize=auto;html=1;exitX=0.5;exitY=1;exitDx=0;exitDy=0;" edge="1" parent="1" source="O7JlTW3U-JiWmMRfGXyI-7" target="O7JlTW3U-JiWmMRfGXyI-14">
          <mxGeometry relative="1" as="geometry" />
        </mxCell>
        <mxCell id="O7JlTW3U-JiWmMRfGXyI-7" value="根据bizNo未查询清理开户客户信息" style="rounded=1;whiteSpace=wrap;html=1;sketch=1;" vertex="1" parent="1">
          <mxGeometry x="-20" y="320" width="120" height="60" as="geometry" />
        </mxCell>
        <mxCell id="O7JlTW3U-JiWmMRfGXyI-10" value="&lt;h1&gt;corecenter&lt;/h1&gt;&lt;p&gt;现状没有根据时间范围查询&lt;/p&gt;&lt;p&gt;查询条件只有bizNo&lt;/p&gt;" style="text;html=1;strokeColor=#b85450;fillColor=#f8cecc;spacing=5;spacingTop=-20;whiteSpace=wrap;overflow=hidden;rounded=0;sketch=1;" vertex="1" parent="1">
          <mxGeometry x="-260" y="290" width="190" height="120" as="geometry" />
        </mxCell>
        <mxCell id="O7JlTW3U-JiWmMRfGXyI-13" value="" style="endArrow=none;dashed=1;html=1;dashPattern=1 3;strokeWidth=2;rounded=1;sketch=1;curved=1;entryX=0;entryY=0.5;entryDx=0;entryDy=0;" edge="1" parent="1" source="O7JlTW3U-JiWmMRfGXyI-10" target="O7JlTW3U-JiWmMRfGXyI-7">
          <mxGeometry width="50" height="50" relative="1" as="geometry">
            <mxPoint x="-70" y="390" as="sourcePoint" />
            <mxPoint x="-20" y="340" as="targetPoint" />
          </mxGeometry>
        </mxCell>
        <mxCell id="O7JlTW3U-JiWmMRfGXyI-14" value="插入开户记录、业务状态机" style="rounded=1;whiteSpace=wrap;html=1;sketch=1;" vertex="1" parent="1">
          <mxGeometry x="-20" y="430" width="120" height="60" as="geometry" />
        </mxCell>
        <mxCell id="O7JlTW3U-JiWmMRfGXyI-22" style="edgeStyle=orthogonalEdgeStyle;curved=1;rounded=1;sketch=1;orthogonalLoop=1;jettySize=auto;html=1;exitX=0.5;exitY=1;exitDx=0;exitDy=0;" edge="1" parent="1" source="O7JlTW3U-JiWmMRfGXyI-17" target="O7JlTW3U-JiWmMRfGXyI-21">
          <mxGeometry relative="1" as="geometry" />
        </mxCell>
        <mxCell id="O7JlTW3U-JiWmMRfGXyI-17" value="获取开户申请超时列表" style="rounded=1;whiteSpace=wrap;html=1;sketch=1;" vertex="1" parent="1">
          <mxGeometry x="240" y="190" width="120" height="60" as="geometry" />
        </mxCell>
        <mxCell id="O7JlTW3U-JiWmMRfGXyI-19" value="&lt;h1&gt;corecenter&lt;/h1&gt;&lt;p&gt;查询t_account_application表使用gmt_modified范围查询&lt;br&gt;&lt;/p&gt;" style="text;html=1;strokeColor=#b85450;fillColor=#f8cecc;spacing=5;spacingTop=-20;whiteSpace=wrap;overflow=hidden;rounded=0;sketch=1;" vertex="1" parent="1">
          <mxGeometry x="470" y="160" width="190" height="120" as="geometry" />
        </mxCell>
        <mxCell id="O7JlTW3U-JiWmMRfGXyI-20" value="" style="endArrow=none;dashed=1;html=1;dashPattern=1 3;strokeWidth=2;rounded=1;sketch=1;curved=1;" edge="1" parent="1" source="O7JlTW3U-JiWmMRfGXyI-17" target="O7JlTW3U-JiWmMRfGXyI-19">
          <mxGeometry width="50" height="50" relative="1" as="geometry">
            <mxPoint x="350" y="260" as="sourcePoint" />
            <mxPoint x="400" y="210" as="targetPoint" />
          </mxGeometry>
        </mxCell>
        <mxCell id="O7JlTW3U-JiWmMRfGXyI-24" style="edgeStyle=orthogonalEdgeStyle;curved=1;rounded=1;sketch=1;orthogonalLoop=1;jettySize=auto;html=1;exitX=0.5;exitY=1;exitDx=0;exitDy=0;entryX=0.5;entryY=0;entryDx=0;entryDy=0;" edge="1" parent="1" source="O7JlTW3U-JiWmMRfGXyI-21" target="O7JlTW3U-JiWmMRfGXyI-23">
          <mxGeometry relative="1" as="geometry" />
        </mxCell>
        <mxCell id="O7JlTW3U-JiWmMRfGXyI-21" value="按业务单号查询查询贷款/开户记录【t_application_order】" style="rounded=1;whiteSpace=wrap;html=1;sketch=1;" vertex="1" parent="1">
          <mxGeometry x="240" y="320" width="120" height="60" as="geometry" />
        </mxCell>
        <mxCell id="O7JlTW3U-JiWmMRfGXyI-23" value="插入开户记录、业务状态机" style="rounded=1;whiteSpace=wrap;html=1;sketch=1;" vertex="1" parent="1">
          <mxGeometry x="240" y="430" width="120" height="60" as="geometry" />
        </mxCell>
        <mxCell id="O7JlTW3U-JiWmMRfGXyI-28" style="edgeStyle=orthogonalEdgeStyle;curved=1;rounded=1;sketch=1;orthogonalLoop=1;jettySize=auto;html=1;exitX=1;exitY=0.5;exitDx=0;exitDy=0;entryX=0;entryY=0.5;entryDx=0;entryDy=0;" edge="1" parent="1" source="O7JlTW3U-JiWmMRfGXyI-25" target="O7JlTW3U-JiWmMRfGXyI-26">
          <mxGeometry relative="1" as="geometry" />
        </mxCell>
        <mxCell id="O7JlTW3U-JiWmMRfGXyI-29" value="单条" style="edgeLabel;html=1;align=center;verticalAlign=middle;resizable=0;points=[];" vertex="1" connectable="0" parent="O7JlTW3U-JiWmMRfGXyI-28">
          <mxGeometry x="-0.1451" relative="1" as="geometry">
            <mxPoint as="offset" />
          </mxGeometry>
        </mxCell>
        <mxCell id="O7JlTW3U-JiWmMRfGXyI-31" style="edgeStyle=orthogonalEdgeStyle;curved=1;rounded=1;sketch=1;orthogonalLoop=1;jettySize=auto;html=1;exitX=1;exitY=0.5;exitDx=0;exitDy=0;entryX=0;entryY=0.5;entryDx=0;entryDy=0;" edge="1" parent="1" source="O7JlTW3U-JiWmMRfGXyI-25" target="O7JlTW3U-JiWmMRfGXyI-30">
          <mxGeometry relative="1" as="geometry" />
        </mxCell>
        <mxCell id="O7JlTW3U-JiWmMRfGXyI-32" value="分页" style="edgeLabel;html=1;align=center;verticalAlign=middle;resizable=0;points=[];" vertex="1" connectable="0" parent="O7JlTW3U-JiWmMRfGXyI-31">
          <mxGeometry x="0.1444" relative="1" as="geometry">
            <mxPoint x="-21" y="1" as="offset" />
          </mxGeometry>
        </mxCell>
        <mxCell id="O7JlTW3U-JiWmMRfGXyI-25" value="&lt;div&gt;OpenAccountDataCleanJob&lt;/div&gt;&lt;div&gt;清数定时任务&lt;/div&gt;" style="rounded=1;whiteSpace=wrap;html=1;sketch=1;" vertex="1" parent="1">
          <mxGeometry x="-230" y="610" width="170" height="65" as="geometry" />
        </mxCell>
        <mxCell id="O7JlTW3U-JiWmMRfGXyI-54" style="edgeStyle=orthogonalEdgeStyle;curved=1;rounded=1;sketch=1;orthogonalLoop=1;jettySize=auto;html=1;exitX=1;exitY=0.5;exitDx=0;exitDy=0;" edge="1" parent="1" source="O7JlTW3U-JiWmMRfGXyI-30" target="O7JlTW3U-JiWmMRfGXyI-35">
          <mxGeometry relative="1" as="geometry" />
        </mxCell>
        <mxCell id="O7JlTW3U-JiWmMRfGXyI-30" value="查询未处理完成数据清理的申请记录" style="rounded=1;whiteSpace=wrap;html=1;sketch=1;" vertex="1" parent="1">
          <mxGeometry x="120" y="550" width="120" height="60" as="geometry" />
        </mxCell>
        <mxCell id="O7JlTW3U-JiWmMRfGXyI-41" style="edgeStyle=orthogonalEdgeStyle;curved=1;rounded=1;sketch=1;orthogonalLoop=1;jettySize=auto;html=1;exitX=0.5;exitY=1;exitDx=0;exitDy=0;entryX=0.5;entryY=0;entryDx=0;entryDy=0;" edge="1" parent="1" source="O7JlTW3U-JiWmMRfGXyI-33" target="O7JlTW3U-JiWmMRfGXyI-40">
          <mxGeometry relative="1" as="geometry" />
        </mxCell>
        <mxCell id="O7JlTW3U-JiWmMRfGXyI-33" value="开户业务" style="rounded=1;whiteSpace=wrap;html=1;sketch=1;" vertex="1" parent="1">
          <mxGeometry x="490" y="660" width="120" height="60" as="geometry" />
        </mxCell>
        <mxCell id="O7JlTW3U-JiWmMRfGXyI-34" value="贷款业务&lt;br&gt;" style="rounded=1;whiteSpace=wrap;html=1;sketch=1;" vertex="1" parent="1">
          <mxGeometry x="490" y="535" width="120" height="60" as="geometry" />
        </mxCell>
        <mxCell id="O7JlTW3U-JiWmMRfGXyI-38" style="edgeStyle=orthogonalEdgeStyle;curved=1;rounded=1;sketch=1;orthogonalLoop=1;jettySize=auto;html=1;entryX=0;entryY=0.5;entryDx=0;entryDy=0;" edge="1" parent="1" source="O7JlTW3U-JiWmMRfGXyI-35" target="O7JlTW3U-JiWmMRfGXyI-33">
          <mxGeometry relative="1" as="geometry" />
        </mxCell>
        <mxCell id="O7JlTW3U-JiWmMRfGXyI-39" style="edgeStyle=orthogonalEdgeStyle;curved=1;rounded=1;sketch=1;orthogonalLoop=1;jettySize=auto;html=1;exitX=1;exitY=0.5;exitDx=0;exitDy=0;entryX=0;entryY=0.5;entryDx=0;entryDy=0;" edge="1" parent="1" source="O7JlTW3U-JiWmMRfGXyI-35" target="O7JlTW3U-JiWmMRfGXyI-34">
          <mxGeometry relative="1" as="geometry" />
        </mxCell>
        <mxCell id="O7JlTW3U-JiWmMRfGXyI-35" value="" style="rhombus;whiteSpace=wrap;html=1;rounded=0;sketch=1;" vertex="1" parent="1">
          <mxGeometry x="330" y="595" width="80" height="80" as="geometry" />
        </mxCell>
        <mxCell id="O7JlTW3U-JiWmMRfGXyI-43" style="edgeStyle=orthogonalEdgeStyle;curved=1;rounded=1;sketch=1;orthogonalLoop=1;jettySize=auto;html=1;exitX=0.5;exitY=1;exitDx=0;exitDy=0;entryX=0.5;entryY=0;entryDx=0;entryDy=0;" edge="1" parent="1" source="O7JlTW3U-JiWmMRfGXyI-40" target="O7JlTW3U-JiWmMRfGXyI-42">
          <mxGeometry relative="1" as="geometry" />
        </mxCell>
        <mxCell id="O7JlTW3U-JiWmMRfGXyI-40" value="根据bizNo查询清理开户客户信息" style="rounded=1;whiteSpace=wrap;html=1;sketch=1;" vertex="1" parent="1">
          <mxGeometry x="490" y="770" width="120" height="60" as="geometry" />
        </mxCell>
        <mxCell id="O7JlTW3U-JiWmMRfGXyI-48" style="edgeStyle=orthogonalEdgeStyle;curved=1;rounded=1;sketch=1;orthogonalLoop=1;jettySize=auto;html=1;exitX=0.5;exitY=1;exitDx=0;exitDy=0;entryX=1;entryY=0.5;entryDx=0;entryDy=0;" edge="1" parent="1" source="O7JlTW3U-JiWmMRfGXyI-42" target="O7JlTW3U-JiWmMRfGXyI-45">
          <mxGeometry relative="1" as="geometry" />
        </mxCell>
        <mxCell id="O7JlTW3U-JiWmMRfGXyI-42" value="根据开户业务类型调用清理kyc开户数据接口" style="rounded=1;whiteSpace=wrap;html=1;sketch=1;" vertex="1" parent="1">
          <mxGeometry x="490" y="880" width="120" height="60" as="geometry" />
        </mxCell>
        <mxCell id="O7JlTW3U-JiWmMRfGXyI-49" style="edgeStyle=orthogonalEdgeStyle;curved=1;rounded=1;sketch=1;orthogonalLoop=1;jettySize=auto;html=1;exitX=0.5;exitY=1;exitDx=0;exitDy=0;entryX=0.5;entryY=0;entryDx=0;entryDy=0;" edge="1" parent="1" source="O7JlTW3U-JiWmMRfGXyI-45" target="O7JlTW3U-JiWmMRfGXyI-46">
          <mxGeometry relative="1" as="geometry" />
        </mxCell>
        <mxCell id="O7JlTW3U-JiWmMRfGXyI-45" value="校验订单是否为开户业务【t_ekyc_application】" style="rounded=1;whiteSpace=wrap;html=1;sketch=1;" vertex="1" parent="1">
          <mxGeometry x="150" y="840" width="120" height="60" as="geometry" />
        </mxCell>
        <mxCell id="O7JlTW3U-JiWmMRfGXyI-50" style="edgeStyle=orthogonalEdgeStyle;curved=1;rounded=1;sketch=1;orthogonalLoop=1;jettySize=auto;html=1;exitX=0.5;exitY=1;exitDx=0;exitDy=0;entryX=0.5;entryY=0;entryDx=0;entryDy=0;" edge="1" parent="1" source="O7JlTW3U-JiWmMRfGXyI-46" target="O7JlTW3U-JiWmMRfGXyI-47">
          <mxGeometry relative="1" as="geometry" />
        </mxCell>
        <mxCell id="O7JlTW3U-JiWmMRfGXyI-46" value="校验用户是否为访客【t_customer_account】" style="rounded=1;whiteSpace=wrap;html=1;sketch=1;" vertex="1" parent="1">
          <mxGeometry x="150" y="960" width="120" height="60" as="geometry" />
        </mxCell>
        <mxCell id="O7JlTW3U-JiWmMRfGXyI-47" value="调用清数策略" style="rounded=1;whiteSpace=wrap;html=1;sketch=1;fillColor=#f8cecc;strokeColor=#b85450;" vertex="1" parent="1">
          <mxGeometry x="150" y="1070" width="120" height="60" as="geometry" />
        </mxCell>
        <mxCell id="O7JlTW3U-JiWmMRfGXyI-52" value="kyc-core" style="text;html=1;strokeColor=none;fillColor=none;align=center;verticalAlign=middle;whiteSpace=wrap;rounded=0;shadow=0;glass=0;dashed=1;sketch=1;" vertex="1" parent="1">
          <mxGeometry x="30" y="820" width="60" height="30" as="geometry" />
        </mxCell>
        <mxCell id="O7JlTW3U-JiWmMRfGXyI-55" style="edgeStyle=orthogonalEdgeStyle;curved=1;rounded=1;sketch=1;orthogonalLoop=1;jettySize=auto;html=1;exitX=1;exitY=0.5;exitDx=0;exitDy=0;" edge="1" parent="1" source="O7JlTW3U-JiWmMRfGXyI-26" target="O7JlTW3U-JiWmMRfGXyI-35">
          <mxGeometry relative="1" as="geometry" />
        </mxCell>
        <mxCell id="O7JlTW3U-JiWmMRfGXyI-26" value="根据业务流水号【bizNo】查找贷款开户记录【t_application_order】" style="rounded=1;whiteSpace=wrap;html=1;sketch=1;" vertex="1" parent="1">
          <mxGeometry x="110" y="670" width="140" height="70" as="geometry" />
        </mxCell>
      </root>
    </mxGraphModel>
  </diagram>
</mxfile>
